<svg version="1.0" xmlns="http://www.w3.org/2000/svg"
 width="61pt" height="60pt" viewBox="0 0 201.000000 200.000000"
 preserveAspectRatio="xMidYMid meet">
<g transform="translate(0.000000,200.000000) scale(0.100000,-0.100000)"
fill="#8a8d98" stroke="none">
<path d="M519 1985 c-240 -58 -428 -244 -490 -483 -66 -256 24 -535 226 -699
230 -186 559 -202 798 -39 l62 43 405 -404 c355 -352 409 -403 436 -403 38 0
54 16 54 54 0 27 -51 81 -403 436 l-404 405 43 62 c79 116 120 264 110 403
-12 185 -69 313 -196 441 -97 98 -183 148 -306 179 -91 24 -249 26 -335 5z
m312 -111 c100 -30 171 -73 249 -153 142 -144 195 -316 155 -506 -54 -258
-294 -455 -555 -455 -242 0 -472 178 -544 419 -20 70 -21 218 -1 296 47 180
209 345 390 396 79 23 233 24 306 3z"/>
</g>
</svg>
